<svg width="35" height="35" viewBox="0 0 35 35" fill="none" xmlns="http://www.w3.org/2000/svg">
<g clip-path="url(#clip0_42_569)">
<path d="M17.4997 14.3181V21.0954H26.9179C26.5043 23.2749 25.2633 25.1205 23.4019 26.3614L29.0814 30.7682C32.3905 27.7138 34.2996 23.2274 34.2996 17.8978C34.2996 16.6569 34.1883 15.4637 33.9814 14.3183L17.4997 14.3181Z" fill="#4285F4"/>
<path d="M7.69225 20.8308L6.4113 21.8114L1.87714 25.3431C4.75667 31.0544 10.6585 34.9999 17.4994 34.9999C22.2242 34.9999 26.1856 33.4408 29.0811 30.7682L23.4016 26.3613C21.8425 27.4113 19.8538 28.0478 17.4994 28.0478C12.9494 28.0478 9.08359 24.9773 7.6994 20.8409L7.69225 20.8308Z" fill="#34A853"/>
<path d="M1.87714 9.65686C0.68402 12.0113 0 14.6682 0 17.4999C0 20.3317 0.68402 22.9886 1.87714 25.343C1.87714 25.3588 7.69996 20.8248 7.69996 20.8248C7.34997 19.7748 7.14309 18.6613 7.14309 17.4998C7.14309 16.3382 7.34997 15.2247 7.69996 14.1747L1.87714 9.65686Z" fill="#FBBC05"/>
<path d="M17.4997 6.96818C20.077 6.96818 22.3679 7.85906 24.1974 9.57727L29.2088 4.56597C26.1701 1.7342 22.2248 0 17.4997 0C10.6589 0 4.75667 3.92954 1.87714 9.65683L7.69978 14.175C9.08379 10.0386 12.9497 6.96818 17.4997 6.96818Z" fill="#EA4335"/>
</g>
<defs>
<clipPath id="clip0_42_569">
<rect width="35" height="35" fill="white"/>
</clipPath>
</defs>
</svg>
