<svg width="100" height="120" viewBox="0 0 100 120" fill="none" xmlns="http://www.w3.org/2000/svg">
<path d="M50 118C59.3888 118 67 117.105 67 116C67 114.895 59.3888 114 50 114C40.6112 114 33 114.895 33 116C33 117.105 40.6112 118 50 118Z" fill="#141E50" fill-opacity="0.18"/>
<path d="M50 9C75 9 92 28 92 51C92 79 66 98 50 111C34 98 8 79 8 51C8 28 25 9 50 9Z" fill="#3578E5"/>
<path d="M65.5 30H34.5C30.634 30 27.5 33.134 27.5 37V63C27.5 66.866 30.634 70 34.5 70H65.5C69.366 70 72.5 66.866 72.5 63V37C72.5 33.134 69.366 30 65.5 30Z" fill="white"/>
<path d="M54 70H61L63 78L54 70Z" fill="white"/>
<path d="M67 32.5H33C31.3431 32.5 30 33.8431 30 35.5V48.5C30 50.1569 31.3431 51.5 33 51.5H67C68.6568 51.5 70 50.1569 70 48.5V35.5C70 33.8431 68.6568 32.5 67 32.5Z" fill="url(#paint0_linear_60_256)"/>
<path d="M62 55.5H32C31.4477 55.5 31 55.9477 31 56.5V56.75C31 57.3023 31.4477 57.75 32 57.75H62C62.5523 57.75 63 57.3023 63 56.75V56.5C63 55.9477 62.5523 55.5 62 55.5Z" fill="black" fill-opacity="0.55"/>
<path d="M41.125 60.5H31.875C31.3918 60.5 31 60.8918 31 61.375C31 61.8582 31.3918 62.25 31.875 62.25H41.125C41.6082 62.25 42 61.8582 42 61.375C42 60.8918 41.6082 60.5 41.125 60.5Z" fill="black" fill-opacity="0.22"/>
<defs>
<linearGradient id="paint0_linear_60_256" x1="30" y1="32.5" x2="44.7272" y2="63.5046" gradientUnits="userSpaceOnUse">
<stop stop-color="#F7C69A"/>
<stop offset="0.55" stop-color="#F47A75"/>
<stop offset="1" stop-color="#8B4F8E"/>
</linearGradient>
</defs>
</svg>
