<svg width="25" height="24" viewBox="0 0 25 24" fill="none" xmlns="http://www.w3.org/2000/svg">
<path d="M13.805 5.43V6.77C11.185 6.98 9.695 8.66 9.695 11.43V16H5.805C3.515 16 2.375 14.86 2.375 12.57V5.43C2.375 3.14 3.515 2 5.805 2H10.375C12.665 2 13.805 3.14 13.805 5.43Z" fill="#4D91FF"/>
<path d="M18.9451 8H14.3751C12.0851 8 10.9451 9.14 10.9451 11.43V18.57C10.9451 20.86 12.0851 22 14.3751 22H18.9451C21.2351 22 22.3751 20.86 22.3751 18.57V11.43C22.3751 9.14 21.2351 8 18.9451 8ZM18.5051 15.75H17.6251V16.63C17.6251 17.04 17.2851 17.38 16.8751 17.38C16.4651 17.38 16.1251 17.04 16.1251 16.63V15.75H15.2451C14.8351 15.75 14.4951 15.41 14.4951 15C14.4951 14.59 14.8351 14.25 15.2451 14.25H16.1251V13.37C16.1251 12.96 16.4651 12.62 16.8751 12.62C17.2851 12.62 17.6251 12.96 17.6251 13.37V14.25H18.5051C18.9151 14.25 19.2551 14.59 19.2551 15C19.2551 15.41 18.9151 15.75 18.5051 15.75Z" fill="#4D91FF"/>
</svg>
