<svg width="25" height="24" viewBox="0 0 25 24" fill="none" xmlns="http://www.w3.org/2000/svg">
<path d="M8.625 12.2H15.625" stroke="#292D32" stroke-width="1.5" stroke-miterlimit="10" stroke-linecap="round" stroke-linejoin="round"/>
<path d="M8.625 16.2H13.005" stroke="#292D32" stroke-width="1.5" stroke-miterlimit="10" stroke-linecap="round" stroke-linejoin="round"/>
<path d="M10.625 6H14.625C16.625 6 16.625 5 16.625 4C16.625 2 15.625 2 14.625 2H10.625C9.625 2 8.625 2 8.625 4C8.625 6 9.625 6 10.625 6Z" stroke="#292D32" stroke-width="1.5" stroke-miterlimit="10" stroke-linecap="round" stroke-linejoin="round"/>
<path d="M16.625 4.02002C19.955 4.20002 21.625 5.43002 21.625 10V16C21.625 20 20.625 22 15.625 22H9.625C4.625 22 3.625 20 3.625 16V10C3.625 5.44002 5.295 4.20002 8.625 4.02002" stroke="#292D32" stroke-width="1.5" stroke-miterlimit="10" stroke-linecap="round" stroke-linejoin="round"/>
</svg>
