<svg width="25" height="24" viewBox="0 0 25 24" fill="none" xmlns="http://www.w3.org/2000/svg">
<path d="M14.975 2H10.275C9.23501 2 8.38501 2.84 8.38501 3.88V4.82C8.38501 5.86 9.22501 6.7 10.265 6.7H14.975C16.015 6.7 16.855 5.86 16.855 4.82V3.88C16.865 2.84 16.015 2 14.975 2Z" fill="#4D91FF"/>
<path d="M17.865 4.81998C17.865 6.40998 16.565 7.70998 14.975 7.70998H10.275C8.68504 7.70998 7.38504 6.40998 7.38504 4.81998C7.38504 4.25998 6.78504 3.90998 6.28504 4.16998C4.87504 4.91998 3.91504 6.40998 3.91504 8.11998V17.53C3.91504 19.99 5.92504 22 8.38504 22H16.865C19.325 22 21.335 19.99 21.335 17.53V8.11998C21.335 6.40998 20.375 4.91998 18.965 4.16998C18.465 3.90998 17.865 4.25998 17.865 4.81998ZM13.005 16.95H8.62504C8.21504 16.95 7.87504 16.61 7.87504 16.2C7.87504 15.79 8.21504 15.45 8.62504 15.45H13.005C13.415 15.45 13.755 15.79 13.755 16.2C13.755 16.61 13.415 16.95 13.005 16.95ZM15.625 12.95H8.62504C8.21504 12.95 7.87504 12.61 7.87504 12.2C7.87504 11.79 8.21504 11.45 8.62504 11.45H15.625C16.035 11.45 16.375 11.79 16.375 12.2C16.375 12.61 16.035 12.95 15.625 12.95Z" fill="#4D91FF"/>
</svg>
