<svg width="25" height="24" viewBox="0 0 25 24" fill="none" xmlns="http://www.w3.org/2000/svg">
<path d="M2.41504 7.77998V17.51C2.41504 19.41 3.76504 20.19 5.40504 19.25L7.75504 17.91C8.26504 17.62 9.11504 17.59 9.64504 17.86L14.895 20.49C15.425 20.75 16.275 20.73 16.785 20.44L21.115 17.96C21.665 17.64 22.125 16.86 22.125 16.22V6.48998C22.125 4.58998 20.775 3.80998 19.135 4.74998L16.785 6.08998C16.275 6.37998 15.425 6.40998 14.895 6.13998L9.64504 3.51998C9.11504 3.25998 8.26504 3.27998 7.75504 3.56998L3.42504 6.04998C2.86504 6.36998 2.41504 7.14998 2.41504 7.77998Z" stroke="#292D32" stroke-width="1.5" stroke-linecap="round" stroke-linejoin="round"/>
<path d="M8.68506 4V17" stroke="#292D32" stroke-width="1.5" stroke-linecap="round" stroke-linejoin="round"/>
<path d="M15.855 6.62V20" stroke="#292D32" stroke-width="1.5" stroke-linecap="round" stroke-linejoin="round"/>
</svg>
