<svg width="25" height="24" viewBox="0 0 25 24" fill="none" xmlns="http://www.w3.org/2000/svg">
<path d="M7.75504 3.57005C7.93442 3.47221 8.12504 3.62274 8.12504 3.82707V17.3829C8.12504 17.6061 7.97262 17.7949 7.77524 17.8992C7.76847 17.9028 7.76173 17.9064 7.75504 17.9101L5.40504 19.2501C3.76504 20.1901 2.41504 19.4101 2.41504 17.5101V7.78005C2.41504 7.15005 2.86504 6.37005 3.42504 6.05005L7.75504 3.57005Z" fill="#4D91FF"/>
<path d="M14.8469 6.10229C15.0172 6.18664 15.125 6.36028 15.125 6.55035V19.7035C15.125 20.072 14.74 20.3139 14.408 20.1539L10.158 18.1063C9.98498 18.023 9.875 17.8479 9.875 17.6559V4.44559C9.875 4.07473 10.2646 3.83294 10.5969 3.99753L14.8469 6.10229Z" fill="#4D91FF"/>
<path d="M22.125 6.48994V16.2199C22.125 16.8499 21.675 17.6299 21.115 17.9499L17.6236 19.9509C17.2903 20.1419 16.875 19.9013 16.875 19.5171V6.33026C16.875 6.15075 16.9712 5.98501 17.1271 5.89602L19.135 4.74994C20.775 3.80994 22.125 4.58994 22.125 6.48994Z" fill="#4D91FF"/>
</svg>
